<?xml version="1.0" encoding="UTF-8"?>
<svg id="Layer_1" data-name="Layer 1" xmlns="http://www.w3.org/2000/svg" viewBox="0 0 2327 2024">
  <defs>
    <style>
      .cls-1 {
        fill: #fff;
      }
    </style>
  </defs>
  <path class="cls-1" d="M657.46,372.83l-55.07-294.09H104.68c-19.48,6.58-37.77,14.73-48.41,33.26-4.65,8.1-5.79,17.1-11.16,24.39v21.14c4.92,8.14,6.79,17.11,11.91,25.56,10.83,17.88,30.04,29.4,50.78,31.85l379.09.44,234.84,1273.61,1292.08.19c85.65-12.2,82.48-129.61-5.68-136.48l-1170.03.15-12.8-63.5h1253.86l202.73-912.76v-3.84l-1624.43.08ZM1969.47,1153.03l-1169.29-.94-119.01-642.91h1429.69l-141.39,643.85Z"/>
  <path class="cls-1" d="M1198.2,1697.28c-49.81-143-242.13-170.94-329.31-46.14-80,114.52-7.69,280.43,132.43,293.37,10.72.99,30.55.99,41.27,0,117.44-10.85,194.16-136.59,155.62-247.23Z"/>
  <path class="cls-1" d="M1923.3,1638.3c-111.45-130.41-324.24-56.14-330.09,113.87-3.25,94.41,71.83,183.53,166.71,192.3,10.72.99,30.55.99,41.27,0,145.97-13.48,217.2-194.91,122.11-306.17Z"/>
</svg>